<?xml version="1.0" encoding="UTF-8" standalone="yes"?>
<svg
      xmlns="http://www.w3.org/2000/svg"
      viewBox="0 0 47.94281 47.882812">
   <defs>
      <clipPath
         id="clip7-5">
         <path
            d="m 465.71875,101.39844 h 48 v 47.88281 h -48 z m 0,0" />
      </clipPath>
   </defs>
   <g
      clip-path="url(#clip7-5)"
      style="clip-rule:nonzero"
      transform="translate(-465.71875,-101.39844)">
      <path
         style="fill:#ffffff;fill-opacity:1;fill-rule:nonzero;stroke:#ffffff;stroke-width:0.12;stroke-linecap:butt;stroke-linejoin:bevel;stroke-miterlimit:10;stroke-opacity:1"
         d="m 465.71875,740.49156 v -47.88281 h 47.88281 v 47.88281 z m 0,0"
         transform="matrix(1,0,0,-1,0,841.89)"/>
      <path
         style="fill:#377A5E;fill-opacity:1;fill-rule:evenodd;stroke:#377A5E;stroke-width:0.12;stroke-linecap:butt;stroke-linejoin:bevel;stroke-miterlimit:10;stroke-opacity:1"
         d="m 485.39844,720.56969 h -0.47657 l -0.36328,-0.1211 -0.48047,-0.11718 -0.35937,-0.24219 -0.23828,-0.35938 -0.24219,-0.35937 -0.23828,-0.35938 -0.12109,-0.48047 v -0.83984 L 483,717.21031 l 0.23828,-0.35937 0.24219,-0.35938 0.23828,-0.24219 0.35937,-0.23828 0.48047,-0.24218 0.36328,-0.11719 h 0.95704 l 0.35937,0.11719 0.36328,0.24218 0.35938,0.23828 0.35937,0.24219 0.23828,0.35938 0.1211,0.35937 0.24218,0.96094 -0.12109,0.35937 -0.12109,0.48047 -0.1211,0.35938 -0.23828,0.35937 -0.35937,0.35938 -0.35938,0.24219 -0.36328,0.11718 -0.35937,0.1211 z m 4.20312,16.19922 -19.80078,-12.71875 v -30.71875 h 9.59766 v 14.51953 h 3.12109 l 0.24219,0.11718 0.11719,0.1211 0.12109,0.24219 0.23828,0.11718 1.92188,2.64063 2.16015,-4.91797 -6.24219,-12.83984 h 2.64063 l 0.24219,0.11718 0.23828,0.1211 0.24219,0.12109 0.23828,0.12109 0.12109,0.23829 0.23828,0.35937 0.24219,0.35938 5.03906,10.5625 0.35938,-5.88282 v -0.35937 l 0.12109,-0.35938 0.12109,-0.23828 0.11719,-0.12109 0.24219,-0.1211 0.23828,-0.12109 0.24219,-0.11719 h 9.71875 l -0.83985,1.67969 -0.24218,0.23828 -0.11719,0.1211 -0.24219,0.23828 -0.23828,0.12109 -0.24219,0.12109 h -0.83984 l -0.48047,0.1211 h -4.55859 l -0.35938,5.16015 v 0.47657 l -0.12109,0.48047 -0.1211,0.35937 -0.11718,0.24219 -0.1211,0.35937 v 0.23828 l -0.12109,0.24219 -0.23828,0.35938 -1.80078,4.19922 h 2.8789 l 2.04297,-3.59766 0.11719,-0.24219 0.12109,-0.11719 0.23828,-0.24218 h 0.84375 l 0.47657,0.24218 0.24218,0.23829 0.1211,0.35937 v 0.60156 l -0.1211,0.23828 -2.16015,3.83985 -0.24219,0.35937 -0.23828,0.24219 -0.35938,0.23828 -0.24218,0.1211 -0.23828,0.12109 h -0.35938 l -0.35937,0.11719 h -0.96094 l -5.64063,-0.11719 h -0.96093 l -0.35938,-0.12109 -0.35937,-0.23829 -0.35938,-0.12109 -0.48047,-0.48047 -0.24219,-0.35937 -2.75781,-3.72266 -1.92187,0.12109 v 13.19922 h 20.16015 v -22.32031 h 0.48047 l 0.24219,-0.23828 0.35937,-0.23828 0.23829,-0.24219 0.35937,-0.23828 v -0.12109 l 1.32031,-2.76172 h -3 v -3.95703 h 9.96094 v 30.71875 z m -23.88281,3.72265 h 47.88281 v -47.88281 h -47.88281 z m 0,0"
         transform="matrix(1,0,0,-1,0,841.89)"/>
   </g>
</svg>
